<svg xmlns="http://www.w3.org/2000/svg" viewBox="0 0 297.71 68.3"><defs><style>.cls-1{fill:#1a1a1a;}</style></defs><g id="Layer_2" data-name="Layer 2"><g id="Layer_2-2" data-name="Layer 2"><path class="cls-1" d="M0,15.6C0,7.2,5.6,1.32,13.28,1.32c6.32,0,10.92,4.52,10.92,7.4a1.61,1.61,0,0,1-1.76,1.72c-3,0-2.76-7.48-10.08-7.48C7.72,3,3.6,7.28,3.6,13.6c0,8.08,5.24,13.68,10.88,13.68,4.8,0,7.56-3.68,8.8-6.64.48-.8,1.72-.64,1.48.52a11.09,11.09,0,0,1-11.28,9.31C6.44,30.47,0,23.52,0,15.6Z"/><path class="cls-1" d="M47.52,29.44v.15c0,.32-.32.48-.8.48h-4.8c-.48,0-.8-.16-.8-.48v-.15c0-.77,1.52-.81,1.44-2.2l-.4-8.16c-.2-4.72-2.16-7-4.92-7-3,0-5,2.36-5,5.52v9.72c0,1.39,1.6,1.35,1.6,2.16v.11c0,.32-.36.52-.84.52H28c-.48,0-.76-.2-.76-.52v-.11c0-.81,1.48-.77,1.48-2.16V4.68C28.72,3.12,27.2,3,27.2,2.4V2.28c0-.32.2-.52.56-.68L31,.16C31.76-.2,32.2.08,32.2.68l-.08,13a7,7,0,0,1,6-3.16c3.92,0,7.2,2.64,7.56,8.68l.44,8C46.2,28.63,47.52,28.67,47.52,29.44Z"/><path class="cls-1" d="M68.68,29.47c0,.6-1.08.84-2.56.84-1.8,0-2.76-.44-2.92-2.63-.92,1.68-2.84,2.79-5.76,2.79-4.4,0-7.44-2.19-7.44-6s3.16-5.92,7.32-5.92a7.19,7.19,0,0,1,4.92,1.6L62.16,19c-.44-4.72-1.72-7.28-4.92-7.28-4.16,0-3.52,4.56-5.52,4.56a1.41,1.41,0,0,1-1.56-1.48c0-2.12,2.72-4.36,7.08-4.36,4.92,0,7.88,3.16,8.4,8.44l.8,8C66.68,29.36,68.68,28.48,68.68,29.47Zm-6-4.67L62.52,23a4.18,4.18,0,0,0-4.4-3.2c-2.72,0-4.6,1.68-4.6,4.16,0,2.92,1.92,5.23,4.8,5.23A4.16,4.16,0,0,0,62.68,24.8Z"/><path class="cls-1" d="M90.75,29.44v.15c0,.32-.31.52-.83.52H85.16c-.52,0-.84-.2-.84-.52v-.15c0-.77,1.52-.77,1.44-2.2l-.4-8c-.2-4.88-2.16-7.2-4.92-7.2-3,0-5,2.36-5,5.52v9.72c0,1.39,1.6,1.39,1.6,2.16v.15c0,.32-.32.52-.84.52h-5c-.48,0-.8-.2-.8-.52v-.15c0-.77,1.56-.77,1.56-2.16V15.16c0-1.72-1.68-1.64-1.68-2.36v-.12c0-.28.24-.44.64-.6l3-1.44c.76-.4,1.12,0,1.12.6v2.92a6.89,6.89,0,0,1,6.24-3.68c3.92,0,7.2,2.64,7.6,8.84l.44,7.88C89.4,28.67,90.75,28.67,90.75,29.44Z"/><path class="cls-1" d="M94.92,24.44v-12H92.28a.57.57,0,0,1-.6-.6v-.4a.55.55,0,0,1,.6-.6h1.44c1.92,0,2.84-1.52,3-3.8,0-.52.32-.8.68-.8h.4c.48,0,.64.28.64.8l0,3.8H104a.62.62,0,0,1,.6.6v.4a.59.59,0,0,1-.6.6H98.52v12c0,2.2,1,3.36,2.52,3.36a2.72,2.72,0,0,0,3-2.4c.24-.6,1.2-.56,1.2.16a4.9,4.9,0,0,1-5.12,4.87C97,30.47,94.92,28.52,94.92,24.44Z"/><path class="cls-1" d="M125.79,29.47c0,.6-1.08.84-2.55.84-1.8,0-2.76-.44-2.92-2.63-.92,1.68-2.84,2.79-5.76,2.79-4.4,0-7.44-2.19-7.44-6s3.16-5.92,7.32-5.92a7.19,7.19,0,0,1,4.92,1.6L119.28,19c-.44-4.72-1.72-7.28-4.92-7.28-4.16,0-3.52,4.56-5.52,4.56a1.41,1.41,0,0,1-1.56-1.48c0-2.12,2.72-4.36,7.08-4.36,4.92,0,7.88,3.16,8.4,8.44l.8,8C123.79,29.36,125.79,28.48,125.79,29.47Zm-6-4.67-.16-1.8a4.18,4.18,0,0,0-4.4-3.2c-2.72,0-4.6,1.68-4.6,4.16,0,2.92,1.92,5.23,4.8,5.23A4.16,4.16,0,0,0,119.8,24.8Z"/><path class="cls-1" d="M127.4,29.55v-.11c0-.81,1.4-.77,1.4-2.16V4.8c0-1.56-1.4-1.8-1.4-2.4V2.32c0-.32.2-.44.56-.64L131.08.16c.8-.4,1.24,0,1.24.56V27.28c0,1.39,1.56,1.35,1.56,2.16v.11c0,.32-.32.52-.8.52h-4.92C127.68,30.07,127.4,29.87,127.4,29.55Z"/><path class="cls-1" d="M146.68,29.59v-.08c0-.75,1.48-.79,1.48-2.23V4.48c0-1.48-1.48-1.48-1.48-2.24V2.16c0-.32.28-.48.72-.48h16.83c.64,0,.88.32,1,.92l1,4c.12.52-.12.8-.52.8h-.16c-1.28,0-2.2-4-4.32-4H153c-.72,0-1.16.4-1.16,1.28V16h7.4c1.35,0,1.47-2.36,2.27-2.36h.24c.32,0,.52.24.52.68V19.2c0,.4-.2.68-.52.68h-.24c-.8,0-.92-2.24-2.27-2.24h-7.4v9.64c0,1.44,1.56,1.48,1.56,2.23v.08c0,.32-.32.48-.8.48h-5C147,30.07,146.68,29.91,146.68,29.59Z"/><path class="cls-1" d="M180.12,13.56c0,1-.48,1.88-1.6,1.88-2.08,0-1.08-2.8-3.56-2.8-2.2,0-3.4,2.52-3.4,5.52v9.12c0,1.39,1.68,1.44,1.68,2.16v.15c0,.32-.28.48-.8.48h-5c-.52,0-.8-.16-.8-.48v-.15c0-.72,1.48-.77,1.48-2.16V15.12c0-1.52-1.6-1.56-1.6-2.32v-.08c0-.28.24-.52.6-.72l3-1.36c.76-.36,1,0,1,.56v3.2a5.26,5.26,0,0,1,5.2-3.92C178.84,10.48,180.12,11.88,180.12,13.56Z"/><path class="cls-1" d="M198.63,24.76c-.47,2.4-3.11,5.71-8.11,5.71-5.16,0-9.28-3.91-9.28-10.15,0-5.64,4.12-9.84,9.44-9.84,4.8,0,7.44,3.16,7.44,5.92a2.32,2.32,0,0,1-1.88,2.36L185.16,22.4c.92,3.44,3.36,5.52,6.6,5.52a6,6,0,0,0,5.72-3.48C197.83,23.88,198.75,24,198.63,24.76ZM184.72,19a11.1,11.1,0,0,0,.16,2l8.92-3.2a1.37,1.37,0,0,0,1-1.4c0-1.8-1.92-4.72-4.68-4.72C186.84,11.76,184.72,15,184.72,19Z"/><path class="cls-1" d="M218.43,24.76c-.47,2.4-3.11,5.71-8.11,5.71-5.16,0-9.28-3.91-9.28-10.15,0-5.64,4.12-9.84,9.44-9.84,4.8,0,7.44,3.16,7.44,5.92A2.32,2.32,0,0,1,216,18.76L205,22.4c.92,3.44,3.36,5.52,6.6,5.52a6,6,0,0,0,5.72-3.48C217.63,23.88,218.55,24,218.43,24.76ZM204.52,19a11.1,11.1,0,0,0,.16,2l8.92-3.2a1.37,1.37,0,0,0,1-1.4c0-1.8-1.92-4.72-4.68-4.72C206.64,11.76,204.52,15,204.52,19Z"/><path class="cls-1" d="M254.55,29.47v.16c0,.32-.36.48-.8.48H249c-.52,0-.8-.16-.8-.48v-.16c0-.71,1.44-.8,1.4-2.19l-.4-7.8c-.28-5.4-2.08-7.44-5-7.44-2.52,0-4.64,2.24-4.76,5.28a10.24,10.24,0,0,1,.16,2v8c0,1.39,1.4,1.48,1.4,2.19v.16c0,.32-.28.48-.76.48h-4.72c-.51,0-.84-.16-.84-.48v-.16c0-.71,1.41-.8,1.41-2.19v-8.2c0-4.44-2.21-7-5-7s-4.84,2.4-5,5.4l0,9.84c0,1.39,1.56,1.48,1.56,2.19v.16c0,.32-.32.48-.8.48h-5c-.48,0-.8-.16-.8-.48v-.16c0-.71,1.52-.8,1.52-2.19V15.16c0-1.6-1.6-1.64-1.6-2.36v-.12c0-.28.2-.44.6-.6l3.12-1.44c.76-.4,1.16,0,1.16.6v2.84a6.7,6.7,0,0,1,5.92-3.6,7.3,7.3,0,0,1,6.83,4.4,6.65,6.65,0,0,1,6.4-4.4c4.08,0,7.16,2.48,7.56,9.08l.44,7.68C253.15,28.67,254.55,28.76,254.55,29.47Z"/><path class="cls-1" d="M275.63,29.47c0,.6-1.08.84-2.56.84-1.8,0-2.76-.44-2.91-2.63-.92,1.68-2.84,2.79-5.76,2.79-4.4,0-7.44-2.19-7.44-6s3.16-5.92,7.32-5.92a7.19,7.19,0,0,1,4.92,1.6L269.12,19c-.45-4.72-1.72-7.28-4.92-7.28-4.16,0-3.52,4.56-5.52,4.56a1.41,1.41,0,0,1-1.56-1.48c0-2.12,2.72-4.36,7.08-4.36,4.92,0,7.87,3.16,8.39,8.44l.8,8C273.63,29.36,275.63,28.48,275.63,29.47Zm-6-4.67-.16-1.8a4.16,4.16,0,0,0-4.39-3.2c-2.72,0-4.6,1.68-4.6,4.16,0,2.92,1.92,5.23,4.8,5.23A4.15,4.15,0,0,0,269.63,24.8Z"/><path class="cls-1" d="M297.71,29.44v.15c0,.32-.32.52-.84.52h-4.76c-.52,0-.84-.2-.84-.52v-.15c0-.77,1.52-.77,1.44-2.2l-.4-8c-.2-4.88-2.16-7.2-4.91-7.2-3,0-5,2.36-5,5.52v9.72c0,1.39,1.6,1.39,1.6,2.16v.15c0,.32-.32.52-.84.52h-5c-.48,0-.8-.2-.8-.52v-.15c0-.77,1.56-.77,1.56-2.16V15.16c0-1.72-1.68-1.64-1.68-2.36v-.12c0-.28.24-.44.64-.6l3-1.44c.76-.4,1.12,0,1.12.6v2.92a6.89,6.89,0,0,1,6.24-3.68c3.91,0,7.19,2.64,7.59,8.84l.44,7.88C296.35,28.67,297.71,28.67,297.71,29.44Z"/><path class="cls-1" d="M70.87,64a1.83,1.83,0,0,0,2.06,1.66c1.18,0,2-.56,2-1.46,0-.62-.26-1.16-1.66-1.56l-1.66-.46c-3-.94-3.56-2.72-3.56-4,0-2.46,2.1-4.12,4.74-4.12s4.66,1.58,4.66,4.22H74.55c0-.92-.62-1.56-1.78-1.56S71,57.35,71,58.17c0,.36.14,1,1.48,1.4l1.64.52c3.34,1,3.82,2.84,3.78,4.16,0,2.74-2.52,4-5,4-3,0-5-1.79-5-4.27Z"/><path class="cls-1" d="M96.29,54.13a7.08,7.08,0,1,1-7,7.08A7,7,0,0,1,96.29,54.13Zm0,11.24a4.17,4.17,0,1,0-4.06-4.16A4.1,4.1,0,0,0,96.29,65.37Z"/><path class="cls-1" d="M115.53,54.29h5.66a4.51,4.51,0,1,1,0,9h-2.72v4.76h-2.94Zm2.94,2.58v3.88h2.58a2,2,0,0,0,.08-3.88Z"/><path class="cls-1" d="M147.81,68.07h-3.52l-3.08-4.76h-.66v4.76h-2.94V54.29h5.64a4.33,4.33,0,0,1,4.58,4.52,4.26,4.26,0,0,1-3.44,4.38Zm-7.26-11.2v3.88H143a2,2,0,0,0,.08-3.88Z"/><path class="cls-1" d="M162.75,64.81l-1.22,3.26h-3.12l5.12-13.78h3.18l5.1,13.78h-3.08l-1.22-3.26Zm3.82-2.54-1.46-4.8-1.4,4.8Z"/><path class="cls-1" d="M193.47,68.07h-2.62l-4.8-8.34v8.34h-2.92V54.29h2.68l4.72,8.24V54.29h2.94Z"/><path class="cls-1" d="M212.69,54.13a7.08,7.08,0,1,1-7,7.08A7,7,0,0,1,212.69,54.13Zm0,11.24a4.17,4.17,0,1,0-4.06-4.16A4.1,4.1,0,0,0,212.69,65.37Z"/></g></g></svg>