<svg xmlns="http://www.w3.org/2000/svg" viewBox="0 0 144.89 114.48"><defs><style>.cls-1{fill:#eacff9;}</style></defs><g id="Layer_2" data-name="Layer 2"><g id="Layer_2-2" data-name="Layer 2"><path class="cls-1" d="M55.33,11.08C38.55,27,33.11,37.38,29.93,51.44c-.91,4.08,0,6.8,4.08,6.8,12.7,0,22.68,10.89,22.68,26.76,0,17.23-10.89,29.48-27.67,29.48-15.87,0-29-12.25-29-33.56C0,51,15.87,22.42,46.71,1.1,53.06-3,61.22,5.18,55.33,11.08Zm87.53,0c-17.24,15.87-22.68,26.3-25.4,40.36-.91,4.08,0,6.8,4.08,6.8,12.7,0,22.22,10.89,22.22,26.76,0,17.23-10.88,29.48-27.21,29.48-15.87,0-29-12.25-29-33.56,0-29.93,15.87-58.5,46.71-79.82C140.59-3,148.75,5.18,142.86,11.08Z"/></g></g></svg>